<?xml version="1.0" standalone="no"?>
<!DOCTYPE svg PUBLIC "-//W3C//DTD SVG 20010904//EN"
 "http://www.w3.org/TR/2001/REC-SVG-20010904/DTD/svg10.dtd">
<svg version="1.0" xmlns="http://www.w3.org/2000/svg"
 width="1535.000000pt" height="2037.000000pt" viewBox="0 0 1535.000000 2037.000000"
 preserveAspectRatio="xMidYMid meet">

<g transform="translate(0.000000,2037.000000) scale(0.100000,-0.100000)"
fill="#000000" stroke="none">
<path d="M5730 16605 l0 -2485 2180 0 2180 0 0 -345 0 -345 484 0 484 0 6
-242 c3 -134 8 -407 11 -608 3 -201 8 -488 11 -637 l6 -273 -3176 0 -3176 0 0
52 0 51 148 142 c114 111 160 163 208 237 l61 95 -69 79 c-38 43 -71 81 -74
83 -3 4 -177 -147 -182 -158 -1 -4 27 -42 64 -86 l65 -80 -288 -283 c-290
-286 -297 -292 -477 -393 l-59 -33 82 160 83 159 209 230 209 230 0 193 0 192
-145 0 -145 0 0 40 0 40 -315 0 -315 0 0 -55 0 -55 -140 0 -140 0 0 -780 0
-780 225 0 225 0 0 -945 0 -945 2180 0 2180 0 0 -32 c0 -18 7 -404 15 -858 8
-454 15 -842 15 -862 l0 -38 -2535 0 -2535 0 0 -1780 0 -1780 2990 0 2990 0 0
-32 c0 -18 7 -404 15 -858 8 -454 15 -842 15 -862 l0 -38 -3005 0 -3005 0 0
-35 0 -35 3075 0 3075 0 0 35 c0 33 -2 35 -35 35 -19 0 -35 1 -35 3 -1 8 -30
1655 -30 1715 0 65 -2 72 -20 72 -16 0 -20 7 -20 35 l0 35 -2970 0 -2970 0 0
1710 0 1710 2535 0 2535 0 0 33 c0 17 -7 403 -15 857 -8 454 -15 858 -15 898
0 65 -2 72 -20 72 -16 0 -20 7 -20 35 l0 35 -2160 0 -2160 0 0 910 0 910 350
0 350 0 0 325 0 325 3210 0 3210 0 0 33 c0 17 -7 403 -15 857 -8 454 -15 851
-15 883 l0 57 90 0 90 0 0 412 0 411 148 142 c114 111 160 163 208 237 l61 95
-69 79 c-38 43 -71 81 -74 83 -3 4 -177 -147 -182 -158 -1 -4 27 -42 64 -86
l65 -80 -288 -283 c-290 -286 -297 -292 -477 -393 l-59 -33 82 160 83 159 209
230 209 230 0 193 0 192 -145 0 -145 0 0 40 0 40 -315 0 -315 0 0 -55 0 -55
-140 0 -140 0 0 -400 0 -400 -2145 0 -2145 0 0 2450 0 2450 -35 0 -35 0 0
-2485z m5200 -1620 l0 -55 -245 0 -245 0 0 55 0 55 245 0 245 0 0 -55z m290
-182 l-1 -148 -202 -223 -202 -222 -133 -256 c-73 -141 -132 -257 -130 -259 2
-2 100 51 218 118 211 120 217 124 343 246 l127 125 -2 -345 -3 -344 -540 0
-540 0 0 715 0 715 108 3 107 3 0 -36 0 -35 315 0 315 0 0 45 0 45 110 0 110
0 0 -147z m393 -48 l28 -34 -32 -50 c-17 -28 -32 -51 -33 -51 -2 0 -22 22 -45
50 l-42 49 38 35 c21 20 43 35 48 35 6 0 23 -16 38 -34z m-7253 -2250 l0 -55
-245 0 -245 0 0 55 0 55 245 0 245 0 0 -55z m290 -182 l-1 -148 -202 -223
-202 -222 -133 -256 c-73 -141 -132 -257 -130 -259 2 -2 100 51 218 118 202
115 221 128 323 226 105 102 107 104 107 73 0 -25 4 -32 20 -32 20 0 20 -5 18
-292 l-3 -293 -540 0 -540 0 0 715 0 715 108 3 107 3 0 -36 0 -35 315 0 315 0
0 45 0 45 110 0 110 0 0 -147z m393 -48 l28 -34 -32 -50 c-17 -28 -32 -51 -33
-51 -2 0 -22 22 -45 50 l-42 49 38 35 c21 20 43 35 48 35 6 0 23 -16 38 -34z
m-373 -590 c0 -8 -7 -15 -16 -15 -14 0 -14 3 -4 15 7 8 14 15 16 15 2 0 4 -7
4 -15z"/>
</g>
</svg>
